<svg xmlns="http://www.w3.org/2000/svg" viewBox="0 0 32 32" width="32" height="32">
  <rect width="32" height="32" rx="6" fill="#22c55e"/>
  <!-- 계산기 모양 -->
  <rect x="6" y="8" width="20" height="16" rx="2" fill="white" stroke="#22c55e" stroke-width="1"/>
  <!-- 화면 -->
  <rect x="8" y="10" width="16" height="4" rx="1" fill="#f3f4f6"/>
  <!-- 버튼들 -->
  <circle cx="10" cy="17" r="1.5" fill="#6b7280"/>
  <circle cx="13" cy="17" r="1.5" fill="#6b7280"/>
  <circle cx="16" cy="17" r="1.5" fill="#6b7280"/>
  <circle cx="19" cy="17" r="1.5" fill="#6b7280"/>
  <circle cx="22" cy="17" r="1.5" fill="#6b7280"/>
  <circle cx="10" cy="20" r="1.5" fill="#6b7280"/>
  <circle cx="13" cy="20" r="1.5" fill="#6b7280"/>
  <circle cx="16" cy="20" r="1.5" fill="#6b7280"/>
  <circle cx="19" cy="20" r="1.5" fill="#6b7280"/>
  <circle cx="22" cy="20" r="1.5" fill="#6b7280"/>
  <circle cx="10" cy="23" r="1.5" fill="#6b7280"/>
  <circle cx="13" cy="23" r="1.5" fill="#6b7280"/>
  <circle cx="16" cy="23" r="1.5" fill="#6b7280"/>
  <circle cx="19" cy="23" r="1.5" fill="#6b7280"/>
  <circle cx="22" cy="23" r="1.5" fill="#6b7280"/>
</svg>
